<svg width="111" height="26" viewBox="0 0 111 26" fill="none" xmlns="http://www.w3.org/2000/svg">
<path d="M20.3008 3.54688H20.4361H20.6383H21.6542V25.1494H20.3562L20.3008 3.54688Z" fill="black"/>
<rect width="1.3692" height="29.3057" transform="matrix(0.698437 0.715672 -0.698437 0.715672 20.4683 3.54688)" fill="black"/>
<rect x="23.271" y="0.5" width="1.3534" height="16.2541" fill="black"/>
<rect x="34.6465" y="15.4556" width="1.38478" height="11.3685" transform="rotate(90 34.6465 15.4556)" fill="black"/>
<rect x="26.2554" y="19.0557" width="1.38478" height="11.0978" transform="rotate(90 26.2554 19.0557)" fill="black"/>
<ellipse cx="30.9928" cy="19.7491" rx="0.947377" ry="0.969344" fill="black"/>
<path d="M35.9999 15.4556H34.6465V16.8403L35.9999 15.4556Z" fill="black"/>
<path d="M15.1577 20.4404L15.1577 19.0557L13.8043 19.0557L15.1577 20.4404Z" fill="black"/>
<path d="M26.2554 19.0566L26.2554 20.4414L27.6088 20.4414L26.2554 19.0566Z" fill="black"/>
<path d="M42.625 6.30078H44.3242L49.5586 20.5H47.4102L43.4746 9.04492L39.5391 20.5H37.3906L42.625 6.30078ZM39.8027 15.4902H47.2734V17.3848H39.8027V15.4902ZM52.5762 12.5996H57.4199C57.7975 12.5996 58.1328 12.5085 58.4258 12.3262C58.7188 12.1439 58.9434 11.8867 59.0996 11.5547C59.2624 11.2161 59.3438 10.8288 59.3438 10.3926C59.3438 9.95638 59.2624 9.57227 59.0996 9.24023C58.9434 8.90169 58.7188 8.64128 58.4258 8.45898C58.1393 8.27669 57.804 8.18555 57.4199 8.18555H52.5762V6.29102H57.3418C58.1621 6.29102 58.8815 6.46029 59.5 6.79883C60.125 7.13737 60.6068 7.61914 60.9453 8.24414C61.2904 8.86263 61.4629 9.57878 61.4629 10.3926C61.4629 11.2064 61.2904 11.9258 60.9453 12.5508C60.6003 13.1693 60.1152 13.6478 59.4902 13.9863C58.8717 14.3249 58.1556 14.4941 57.3418 14.4941H52.5762V12.5996ZM51.707 6.29102H53.6992V20.5H51.707V6.29102ZM56.4434 14.0547L58.4258 13.6055L62.0586 20.5H59.6953L56.4434 14.0547ZM66.8145 7.46289H68.8066V20.5H66.8145V7.46289ZM62.8008 6.30078H72.8203V8.19531H62.8008V6.30078ZM74.7734 6.30078H76.7656V20.5H74.7734V6.30078ZM75.7695 18.6055H83.8945V20.5H75.7695V18.6055ZM90.3008 6.30078H92L97.2344 20.5H95.0859L91.1504 9.04492L87.2148 20.5H85.0664L90.3008 6.30078ZM87.4785 15.4902H94.9492V17.3848H87.4785V15.4902ZM100.555 18.6543H104.402C105.411 18.6543 106.147 18.4622 106.609 18.0781C107.072 17.694 107.303 17.1536 107.303 16.457V16.4277C107.303 15.946 107.218 15.5326 107.049 15.1875C106.886 14.8424 106.626 14.5788 106.268 14.3965C105.91 14.2077 105.451 14.1133 104.891 14.1133H100.555V12.3164H104.891C105.626 12.3164 106.18 12.1439 106.551 11.7988C106.928 11.4538 107.117 10.9427 107.117 10.2656C107.117 9.55599 106.909 9.02539 106.492 8.67383C106.076 8.32227 105.451 8.14648 104.617 8.14648H100.555V6.30078H104.979C105.896 6.30078 106.665 6.45703 107.283 6.76953C107.902 7.08203 108.364 7.52474 108.67 8.09766C108.976 8.67057 109.129 9.35417 109.129 10.1484C109.129 10.6367 109.035 11.0957 108.846 11.5254C108.657 11.9486 108.367 12.3132 107.977 12.6191C107.592 12.9186 107.114 13.1204 106.541 13.2246C107.114 13.3092 107.609 13.5143 108.025 13.8398C108.442 14.1589 108.761 14.5592 108.982 15.041C109.204 15.5228 109.314 16.0436 109.314 16.6035V16.6328C109.314 17.401 109.145 18.0781 108.807 18.6641C108.468 19.25 107.983 19.7025 107.352 20.0215C106.72 20.3405 105.984 20.5 105.145 20.5H100.555V18.6543ZM99.3828 6.30078H101.365V20.5H99.3828V6.30078Z" fill="black"/>
</svg>
